<svg width="1766" height="379" viewBox="0 0 1766 379" fill="none" xmlns="http://www.w3.org/2000/svg">
<path d="M413 154.248H544.5L1223.5 154H1329C1364.84 153.275 1388.44 155.03 1416.5 159.5C1449.54 167.675 1466.91 167.317 1505.19 166.527L1506.5 166.5C1548.77 153.143 1562.62 143.253 1572.5 122C1578.25 89.8063 1587.31 74.5098 1621 55.5C1657.51 36.1593 1675.68 30.0729 1688.5 11C1690.79 1.75459 1689.39 -0.0148201 1697 9.5C1704.91 21.6693 1702.59 30.4089 1665 55.5C1631.87 73.3456 1609.01 84.1096 1618 94.5C1640.27 98.3777 1648.62 95.4775 1673.5 94.5C1679.63 94.2108 1682.51 92.9941 1688.5 88C1694.74 82.5576 1694.26 87.8117 1694 94.5C1694.08 101.452 1677.38 103.395 1644.5 106.5L1618 109.5C1591.74 153.803 1565.72 177.387 1543 186.5C1531.5 190.806 1540.66 191.632 1546 191C1592.56 188.016 1612.33 186.148 1654 193.5C1668.68 198.57 1684.53 208.808 1700.5 213.5C1734.8 223.575 1766.11 226.95 1762.5 231.5C1759.93 243.486 1723.6 236.439 1668.5 215.5C1668.36 220.61 1668.36 231.075 1664.5 239C1662.47 247.524 1658.09 253.835 1662 257C1666.04 260.218 1671.52 264.219 1670 264.5C1661.86 265.431 1648.75 264.561 1645.5 257.5C1641.73 249.306 1645.15 232.15 1647.5 223.5C1651.88 207.396 1607.24 206.786 1547.5 217.5C1590.69 242.005 1621.54 277.614 1627 290.5C1627.54 296.85 1643.31 323.711 1668.5 343C1678.92 347.188 1688.97 347.056 1700 355C1700.05 355.305 1674.96 362.851 1657.5 354C1641.94 349.902 1631.03 339.656 1625.5 333C1608.87 315.881 1600.81 303.793 1599.5 310.5C1598.19 317.207 1593.12 326.81 1586 335C1571.85 351.767 1577.09 366.859 1580 373.5C1582.91 380.141 1570.14 374.652 1561 362C1557.73 352.893 1557.1 347.905 1561 339.5C1579.62 306.929 1580.32 290.72 1558 268.5C1528.86 237.224 1470.18 220.137 1329 203.75H1223.5H544.5H438C342.811 213.602 271.968 228.12 217.5 259.253C212.538 261.87 210.994 264.606 208.5 269.753C203.479 273.675 201.305 276.033 199.5 280.754L196 286.254C189.834 298.049 191.043 308.38 207.5 340.757V361.258C199.124 375.252 186.069 375.209 188 372.758C189.931 370.307 195.41 348.31 181 335.256C173.633 325.533 170.155 319.96 168 309.255C164.925 307.919 159.684 312.692 151.5 323.904C142.105 331.208 137.449 335.598 136.5 337.756C135.975 339.971 122.869 346.738 112 352.757C101.13 358.776 70.7408 356.582 67.9999 355.257C65.259 353.933 82.9222 348.77 98.4999 343.757C126.6 320.019 134.954 307.541 141 289.254C164.041 258.364 180.838 239.879 221.5 217.251L161.5 209.751C144.112 208.104 135.057 209.589 121.5 221.251C117.484 223.991 118.241 228.906 121 239.252C123.364 247.414 124.213 251.827 121.5 258.253C113.025 263.93 95.7491 265.798 97.9999 263.253C100.251 260.708 101.904 260.828 105 258.753C106.855 255.049 106.663 251.801 105 244.752C100.973 233.582 99.0784 227.286 98.9999 215.751C62.2902 231.453 43.4894 237.335 16.9999 236.252C7.6428 234.449 3.03789 233.384 3.49989 230.752C5.56611 228.707 10.1949 229.774 16.9999 230.752C57.4762 222.462 84.4412 203.684 113 194.009C131.099 189.812 149.377 187.582 170 187.144C187.867 188.16 207.144 189.038 229 189.75C229.873 187.963 217.988 183.039 201.5 175.749C188.744 163.436 182.403 155.9 172 141.747C168.381 136.865 164.999 131.629 161.5 125.754C154.079 114.797 148.495 108.341 141.5 107.746C135.365 108.549 132.583 108.239 128 107.246C113.115 103.511 105.455 103.088 104.5 103.246C103.545 103.403 85.9514 102.921 77.9999 98.2453L77.9812 98.231C73.4675 94.7639 70.9309 92.8156 77.9999 88.2448C79.4749 88.0663 81.3186 89.5922 85.4999 93.7451C111.356 96.2111 125.885 96.8906 152 93.7451C151.566 81.4896 145.1 75.3888 123.5 65.7438C104.123 56.4263 94.2371 50.6023 78.9999 38.7425C67.7919 27.5305 65.1359 20.8928 70.4999 10.2412C72.4999 5.24098 80.2811 1.47731 80.2811 3.60916C80.2811 5.74101 77.4999 9.74121 80.9999 14.7414C84.4999 19.7416 106 37.2425 143 53.7432C180 70.244 189.5 95.7702 195.5 121.246C201.5 146.723 243 161.248 253 164.748C263 168.249 313.355 167.67 351.5 158.248L413 154.248Z" stroke="black" stroke-width="5"/>
</svg>
