<?xml version="1.0" standalone="no"?>
<!DOCTYPE svg PUBLIC "-//W3C//DTD SVG 20010904//EN"
 "http://www.w3.org/TR/2001/REC-SVG-20010904/DTD/svg10.dtd">
<svg version="1.0" xmlns="http://www.w3.org/2000/svg"
 width="100.000000pt" height="100.000000pt" viewBox="0 0 100.000000 100.000000"
 preserveAspectRatio="xMidYMid meet">

<g transform="translate(0.000000,100.000000) scale(0.100000,-0.100000)"
fill="#000000" stroke="none">
<path d="M477 861 c194 -19 324 -155 322 -339 0 -88 -17 -136 -47 -140 -14 -2
-47 10 -80 31 -32 19 -65 37 -74 40 -9 3 -22 16 -29 28 l-11 22 35 -21 c38
-24 62 -28 73 -10 4 7 3 8 -5 4 -19 -12 -49 4 -71 38 -28 47 -26 56 18 56 27
0 33 3 22 10 -8 5 -26 10 -40 11 -20 1 -18 4 15 14 27 9 33 14 20 16 -33 3
-49 6 -60 9 -5 1 -13 2 -17 1 -21 -3 -3 12 35 30 l42 19 -43 -3 c-27 -3 -49 1
-60 10 -11 9 -12 12 -2 8 8 -4 2 4 -15 18 -28 23 -29 26 -14 44 9 10 19 26 22
36 4 9 17 17 29 17 21 1 21 2 5 11 -24 14 -59 5 -95 -26 -35 -29 -49 -31 -80
-9 -24 17 -27 13 -12 -17 6 -10 17 -19 25 -19 20 0 19 -9 -2 -33 -10 -11 -12
-17 -4 -12 10 6 12 2 6 -14 -5 -16 -3 -20 9 -15 33 13 14 -6 -20 -21 -21 -8
-42 -23 -49 -32 -19 -25 -66 -10 -151 48 -41 29 -77 50 -80 47 -2 -3 25 -25
61 -48 36 -24 71 -50 78 -59 7 -9 34 -27 61 -41 26 -13 51 -31 53 -40 3 -8 14
-34 24 -57 26 -58 24 -73 -11 -86 -40 -15 -38 -23 5 -23 33 0 39 6 36 33 -3
24 17 13 29 -16 13 -33 -2 -77 -23 -65 -9 5 -9 4 0 -6 10 -11 16 -11 31 3 10
9 22 14 25 10 4 -3 7 1 7 10 0 10 7 17 15 17 8 0 15 -9 15 -19 0 -11 5 -23 10
-26 14 -9 12 39 -2 53 -21 21 11 14 39 -8 14 -11 32 -20 40 -20 7 0 46 -22 86
-49 63 -43 175 -96 184 -87 8 8 -82 97 -127 126 -27 18 -50 38 -50 45 0 8 -21
20 -47 28 -35 11 -41 15 -23 16 14 1 42 -8 63 -19 21 -11 49 -21 62 -22 19 -2
24 -7 19 -20 -12 -39 9 -15 34 40 38 81 38 193 0 274 -35 75 -98 141 -166 175
-45 22 -71 27 -141 29 l-86 3 82 -8z m-109 -283 c17 -17 15 -28 -5 -28 -22 1
-55 25 -46 33 10 11 38 8 51 -5z m42 -18 c0 -5 -4 -10 -10 -10 -5 0 -10 5 -10
10 0 6 5 10 10 10 6 0 10 -4 10 -10z"/>
<path d="M617 230 c-75 -36 -155 -45 -227 -26 -64 17 -78 14 -23 -5 61 -22
179 -17 240 10 29 13 58 29 64 37 15 18 15 18 -54 -16z"/>
<path d="M297 229 c7 -7 15 -10 18 -7 3 3 -2 9 -12 12 -14 6 -15 5 -6 -5z"/>
</g>
</svg>
