<svg width="1920" height="285" viewBox="0 0 1920 285" fill="none" xmlns="http://www.w3.org/2000/svg">
<path d="M0 63L53.3333 56.3C106.667 49.7 213.333 36.3 320 45C426.667 53.7 533.333 84.3 640 70C746.667 55.7 853.333 -3.69999 960 0.50001C1066.67 4.70001 1173.33 72.3 1280 74.8C1386.67 77.3 1493.33 14.7 1600 7.00001C1706.67 -0.699989 1813.33 46.7 1866.67 70.3L1920 94V286H1866.67C1813.33 286 1706.67 286 1600 286C1493.33 286 1386.67 286 1280 286C1173.33 286 1066.67 286 960 286C853.333 286 746.667 286 640 286C533.333 286 426.667 286 320 286C213.333 286 106.667 286 53.3333 286H0V63Z" fill="#141414"/>
</svg>
