<svg id="visual" viewBox="0 0 900 600" width="900" height="600" xmlns="http://www.w3.org/2000/svg" xmlns:xlink="http://www.w3.org/1999/xlink" version="1.1"><rect x="0" y="0" width="900" height="600" fill="#002233"></rect><path d="M0 378L25 371.3C50 364.7 100 351.3 150 360C200 368.7 250 399.3 300 385C350 370.7 400 311.3 450 315.5C500 319.7 550 387.3 600 389.8C650 392.3 700 329.7 750 322C800 314.3 850 361.7 875 385.3L900 409L900 601L875 601C850 601 800 601 750 601C700 601 650 601 600 601C550 601 500 601 450 601C400 601 350 601 300 601C250 601 200 601 150 601C100 601 50 601 25 601L0 601Z" fill="#0066FF" stroke-linecap="round" stroke-linejoin="miter"></path></svg>